<svg xmlns="http://www.w3.org/2000/svg" viewBox="0 0 128 128">
  <rect width="128" height="128" rx="28" fill="#0b111c" />
  <path
    d="M74.7 29.2c-3.9-1.9-8.4-3-13.5-3.3v-8.4h-8.5v8.7c-2.5.4-4.8 1.1-6.9 2.1-6.7 3.3-10 8.9-10 16.7 0 5.3 1.6 9.4 4.8 12.2 3.2 2.8 7.2 4.8 12.1 5.9v17.4c-2.2-.2-4.4-.8-6.6-1.8-3.7-1.7-6.8-4.3-9.4-7.9l-7 6.8c2.8 4.5 6.7 7.9 11.7 10.3 3.4 1.6 7.2 2.7 11.3 3.1v8.9h8.5v-8.8c2.5-.3 4.9-.9 7.2-1.9 7.7-3.2 11.6-9.1 11.6-17.7 0-5.6-1.8-9.8-5.5-12.8-3.6-3-8-5-13.3-6.2V36.3c3.8.4 7.2 2 10.2 4.6l6.5-7.1c-2.4-2.1-4.9-3.6-7.5-4.6Zm-22 23.3c-2.5-.7-4.3-1.7-5.5-2.8-1.2-1.2-1.8-2.8-1.8-5 0-2.6.9-4.7 2.7-6.2 1.2-1 2.7-1.8 4.6-2.2v16.2Zm16.1 29.6c-1.5 1.4-4.1 2.3-7.6 2.8V67.8c2.9.7 5.1 1.7 6.7 2.9 1.9 1.4 2.8 3.4 2.8 6.1 0 2.2-.7 4-1.9 5.3Z"
    fill="#40d78e"
  />
</svg>
